<svg width="570" height="280" viewBox="0 0 570 280" fill="none" xmlns="http://www.w3.org/2000/svg">
<g clip-path="url(#clip0_2146_2929)">
<path opacity="0.3" d="M131.212 199.054V84.4053H74.8311L0.966797 203.569V233.356H87.7967V280H131.217V233.356H154.434V199.054H131.217H131.212ZM87.7915 155.723V199.054H43.4718L43.7716 198.451L69.7028 155.723C76.3355 143.386 81.7636 131.947 88.0913 119.311H88.996C88.3911 131.947 87.7862 143.99 87.7862 155.723H87.7915ZM541.029 199.054V84.4053H484.649L410.779 203.569V233.356H497.614V280H541.029V233.356H564.246V199.054H541.029ZM497.614 155.723V199.054H453.295L453.594 198.451L479.52 155.723C486.153 143.386 491.586 131.947 497.914 119.311H498.813C498.214 131.947 497.609 143.99 497.609 155.723H497.614ZM288.256 37.7614C268.063 37.7614 249.148 43.2001 232.89 52.7074C232.438 52.9646 231.991 53.2323 231.544 53.5053C230.912 53.8781 230.281 54.2718 229.666 54.6655C229.224 54.7023 228.777 54.7443 228.335 54.802C228.067 55.2272 227.788 55.6525 227.499 56.0777C223.517 58.7236 219.719 61.6214 216.127 64.7555C215.533 65.2647 214.949 65.7845 214.37 66.3147C192.342 86.3424 178.519 115.211 178.519 147.302C178.519 207.79 227.657 256.833 288.261 256.833C348.865 256.833 398.008 207.79 398.008 147.302C398.008 86.8149 348.87 37.7666 288.261 37.7666L288.256 37.7614ZM273.428 206.64H233.169C230.755 206.64 228.793 204.693 228.793 202.278V162.096C228.793 162.096 228.793 162.096 228.793 162.086L249.816 141.102L265.927 125.028C267.421 123.532 268.305 121.915 268.626 120.093C268.92 118.382 268.689 116.492 267.968 114.765C267.253 113.032 266.08 111.531 264.655 110.533C263.134 109.468 261.367 108.948 259.247 108.948C254.303 108.948 250.227 112.77 249.843 117.61C249.843 117.61 249.843 117.62 249.832 117.62H228.782V117.473C229.019 109.426 232.38 102.165 237.698 96.8524C243.105 91.4557 250.527 88.0801 258.742 87.9489H258.895C258.485 90.2377 257.743 92.4689 256.807 94.637C253.672 94.637 250.532 95.1357 247.576 96.1542C243.163 97.6766 239.56 100.454 236.835 104.234C235.425 106.197 233.942 108.638 233.879 111.137C233.821 113.31 235.378 114.864 237.466 115.221C239.986 115.646 242.647 114.57 244.809 113.363C247.471 111.872 249.748 109.924 251.652 107.541C254.293 104.239 256.67 100.443 258.448 96.4587C258.706 96.4587 258.969 96.4797 259.226 96.5007C266.78 97.0729 274.448 101.01 277.078 108.502C278.62 112.89 278.309 117.767 277.483 122.272C276.573 127.248 274.717 132.047 272.171 136.42C266.722 145.796 258.201 152.841 248.291 157.14C245.914 158.169 243.447 159.025 240.99 159.839C240.733 159.928 240.843 160.568 241.132 160.526C253.341 158.763 264.492 150.961 271.566 141.055C274.864 136.441 277.368 131.275 278.788 125.784C280.087 120.744 280.818 115.085 279.535 109.966C277.326 101.189 269.178 95.9862 260.562 94.8838C260.1 94.826 259.637 94.7788 259.174 94.742C259.705 93.4191 260.168 92.0752 260.541 90.7312C260.799 89.8335 260.994 88.9253 261.141 88.0014C286.878 89.4713 299.243 121.474 280.481 140.205L249.832 170.79V185.631C249.832 185.631 249.832 185.641 249.843 185.641H264.712L295.693 154.715C314.671 135.774 346.977 148.814 347.708 175.299V177.116C347.476 185.158 344.115 192.424 338.792 197.731C333.438 203.076 326.111 206.435 317.984 206.635C317.984 206.635 317.974 206.635 317.974 206.619V185.625C317.974 185.625 317.974 185.615 317.984 185.615C322.845 185.237 326.674 181.168 326.674 176.223C326.674 173.42 325.764 171.21 323.881 169.456C322.061 167.755 319.494 166.742 317.017 166.742C314.539 166.742 312.467 167.666 310.568 169.567L303.146 176.969L294.457 185.641L273.423 206.64H273.412H273.428ZM347.718 134.714C347.718 134.714 347.708 134.729 347.697 134.724C344.157 132.152 340.297 130.036 336.168 128.409C330.024 125.983 323.581 124.755 317.032 124.755C314.802 124.755 312.593 124.897 310.415 125.185C310.405 125.185 310.4 125.185 310.4 125.169C311.573 116.25 310.352 107.142 306.849 98.6898C305.255 94.8575 303.236 91.2614 300.837 87.9646C300.837 87.9646 300.837 87.9489 300.848 87.9489H343.347C345.762 87.9489 347.724 89.9018 347.724 92.3114V134.714H347.718ZM279.54 109.966C277.331 101.189 269.183 95.9862 260.568 94.8838C260.105 94.826 259.642 94.7788 259.179 94.742C259.71 93.4191 260.173 92.0752 260.547 90.7312C260.804 89.8335 260.999 88.9253 261.146 88.0014C260.41 87.9594 259.668 87.9436 258.906 87.9541C258.495 90.243 257.754 92.4741 256.817 94.6423C253.682 94.6423 250.542 95.141 247.586 96.1594C243.173 97.6819 239.57 100.459 236.846 104.239C235.436 106.202 233.953 108.643 233.89 111.142C233.832 113.316 235.389 114.87 237.477 115.226C239.996 115.652 242.658 114.576 244.82 113.368C247.481 111.877 249.759 109.93 251.663 107.546C254.303 104.244 256.681 100.448 258.458 96.4639C258.716 96.4639 258.979 96.4849 259.237 96.5059C266.79 97.0782 274.459 101.015 277.089 108.507C278.63 112.896 278.32 117.773 277.494 122.277C276.584 127.254 274.727 132.052 272.181 136.425C266.732 145.801 258.211 152.846 248.302 157.146C245.924 158.175 243.457 159.03 241.001 159.844C240.743 159.933 240.854 160.574 241.143 160.532C253.351 158.768 264.502 150.967 271.577 141.06C274.874 136.446 277.378 131.28 278.798 125.789C280.098 120.749 280.829 115.09 279.545 109.972L279.54 109.966ZM288.256 48.2451C274.175 48.2451 260.783 51.1692 248.654 56.4504C247.944 56.7549 247.244 57.0751 246.54 57.3954C212.571 73.1183 189.018 107.467 189.018 147.297C189.018 201.999 233.448 246.344 288.261 246.344C343.074 246.344 387.504 201.994 387.504 147.297C387.504 92.6001 343.069 48.2451 288.261 48.2451H288.256ZM347.718 177.121C347.487 185.164 344.126 192.429 338.803 197.737C333.448 203.081 326.121 206.441 317.995 206.64C317.995 206.64 317.984 206.64 317.984 206.624V185.631C317.984 185.631 317.984 185.62 317.995 185.62C322.855 185.242 326.684 181.174 326.684 176.228C326.684 173.425 325.774 171.215 323.891 169.462C322.071 167.761 319.504 166.747 317.027 166.747C314.55 166.747 312.477 167.671 310.578 169.572L303.157 176.974L294.467 185.646L273.433 206.645H233.164C230.749 206.645 228.788 204.698 228.788 202.283V162.101C228.788 162.101 228.788 162.101 228.788 162.091L249.811 141.108L265.922 125.033C267.416 123.537 268.3 121.92 268.62 120.098C268.915 118.387 268.684 116.497 267.963 114.77C267.248 113.037 266.075 111.536 264.649 110.538C263.129 109.473 261.362 108.953 259.242 108.953C254.298 108.953 250.221 112.775 249.837 117.615C249.837 117.615 249.838 117.626 249.827 117.626H228.777V117.479C229.014 109.431 232.375 102.17 237.692 96.8577C243.1 91.4609 250.521 88.0853 258.737 87.9541H258.89C258.479 90.243 257.738 92.4741 256.802 94.6423C253.667 94.6423 250.527 95.141 247.57 96.1594C243.157 97.6819 239.554 100.459 236.83 104.239C235.42 106.202 233.937 108.643 233.874 111.142C233.816 113.316 235.373 114.87 237.461 115.226C239.98 115.652 242.642 114.576 244.804 113.368C247.465 111.877 249.743 109.93 251.647 107.546C254.287 104.244 256.665 100.448 258.443 96.4639C258.7 96.4639 258.963 96.4849 259.221 96.5059C266.774 97.0782 274.443 101.015 277.073 108.507C278.614 112.896 278.304 117.773 277.478 122.277C276.568 127.254 274.711 132.052 272.166 136.425C266.716 145.801 258.195 152.846 248.286 157.146C245.908 158.175 243.442 159.03 240.985 159.844C240.727 159.933 240.838 160.574 241.127 160.532C253.335 158.768 264.486 150.967 271.561 141.06C274.859 136.446 277.362 131.28 278.783 125.789C280.082 120.749 280.813 115.09 279.529 109.972C277.32 101.194 269.173 95.9915 260.557 94.889C260.094 94.8313 259.631 94.784 259.169 94.7473C259.7 93.4243 260.163 92.0804 260.536 90.7365C260.794 89.8388 260.988 88.9306 261.136 88.0066C286.872 89.4765 299.238 121.479 280.476 140.21L249.827 170.795V185.636C249.827 185.636 249.827 185.646 249.837 185.646H264.707L295.688 154.72C314.665 135.779 346.972 148.82 347.703 175.304V177.121H347.718ZM347.718 134.714C347.718 134.714 347.708 134.729 347.697 134.724C344.157 132.152 340.297 130.036 336.168 128.409C330.024 125.983 323.581 124.755 317.032 124.755C314.802 124.755 312.593 124.897 310.415 125.185C310.405 125.185 310.4 125.185 310.4 125.169C311.573 116.25 310.352 107.142 306.849 98.6898C305.255 94.8575 303.236 91.2614 300.837 87.9646C300.837 87.9646 300.837 87.9489 300.848 87.9489H343.347C345.762 87.9489 347.724 89.9018 347.724 92.3114V134.714H347.718ZM279.54 109.966C277.331 101.189 269.183 95.9862 260.568 94.8838C260.105 94.826 259.642 94.7788 259.179 94.742C259.71 93.4191 260.173 92.0752 260.547 90.7312C260.804 89.8335 260.999 88.9253 261.146 88.0014C261.877 83.5916 261.499 78.9613 260.578 74.6303C259.437 69.286 257.222 63.8316 253.304 59.9048C251.931 58.5293 250.353 57.3849 248.654 56.4504C245.293 54.5868 241.448 53.5211 237.687 53.0328C236.104 52.8229 234.5 52.7179 232.89 52.7126C232.564 52.7021 232.233 52.7126 231.907 52.7126C232.638 50.9855 233.053 49.1375 233.011 47.2476C232.806 37.0894 221.566 30.5272 212.755 28.6688C210.362 28.1701 207.948 28.0073 205.518 28.1963C204.703 28.2593 205.197 29.535 205.86 29.4825C210.483 29.136 215.254 30.522 219.357 32.5694C223.338 34.5485 227.131 37.4831 229.319 41.4257C231.339 45.0637 231.296 49.1953 229.482 52.8281C226.405 53.0801 223.349 53.6891 220.456 54.6918C218.099 55.5002 215.664 56.5869 213.839 58.2983C212.461 59.5845 210.888 61.7002 211.451 63.7738C211.819 65.1387 213.024 65.9472 214.37 66.3147C215.291 66.5719 216.285 66.6192 217.126 66.5142C220.146 66.1257 223.028 64.2515 225.163 62.1674C227.409 59.9782 229.44 57.3324 230.981 54.5868C232.285 54.529 233.595 54.5343 234.878 54.6025C238.844 54.8125 242.937 55.6315 246.54 57.4006C247.707 57.9728 248.822 58.6448 249.864 59.4218C253.872 62.4194 256.234 67.0654 257.659 71.7587C259.132 76.6199 259.752 81.9274 259.063 86.9724C259.016 87.2979 258.963 87.6339 258.906 87.9594C258.495 90.2482 257.754 92.4794 256.817 94.6475C253.682 94.6475 250.542 95.1462 247.586 96.1647C243.173 97.6871 239.57 100.464 236.846 104.244C235.436 106.207 233.953 108.649 233.89 111.147C233.832 113.321 235.389 114.875 237.477 115.232C239.996 115.657 242.658 114.581 244.82 113.373C247.481 111.882 249.759 109.935 251.663 107.551C254.303 104.249 256.681 100.454 258.458 96.4692C258.716 96.4692 258.979 96.4902 259.237 96.5112C266.79 97.0834 274.459 101.021 277.089 108.512C278.63 112.901 278.32 117.778 277.494 122.282C276.584 127.259 274.727 132.057 272.181 136.43C266.732 145.806 258.211 152.851 248.302 157.151C245.924 158.18 243.457 159.036 241.001 159.849C240.743 159.938 240.854 160.579 241.143 160.537C253.351 158.773 264.502 150.972 271.577 141.066C274.874 136.451 277.378 131.285 278.798 125.794C280.098 120.754 280.829 115.095 279.545 109.977L279.54 109.966ZM227.494 56.0777C223.512 58.7236 219.714 61.6214 216.122 64.7555C215.959 64.7555 215.801 64.7555 215.638 64.745C214.844 64.6873 213.828 64.3093 213.523 63.4221C213.166 62.3721 213.96 61.1542 214.481 60.519C215.775 58.9073 217.768 57.9361 219.656 57.1014C222.37 55.894 225.332 55.1642 228.33 54.8073C228.062 55.2325 227.783 55.6577 227.494 56.0829V56.0777ZM197.433 18.9358C197.433 18.9358 201.347 6.16844 193.441 8.58332C189.786 9.69626 188.318 13.8331 189.817 20.2115C189.912 20.642 190.028 21.0829 190.154 21.5344C189.554 21.4924 188.939 21.4977 188.318 21.5502C182.143 21.9964 175.184 26.4534 178.046 29.8028C181.186 33.4881 189.538 27.5191 189.538 27.5191C189.538 27.5191 188.755 34.9685 191.479 35.8085C193.936 36.5697 197.107 30.9052 195.787 26.4534C195.64 25.9547 195.435 25.477 195.166 25.0202C195.166 25.0202 195.903 25.3405 197.044 25.5032C198.596 25.7237 200.905 25.624 203.135 23.9808C207.006 21.1354 202.898 18.4528 197.433 18.9306V18.9358ZM197.433 18.9358C197.433 18.9358 201.347 6.16844 193.441 8.58332C189.786 9.69626 188.318 13.8331 189.817 20.2115C189.912 20.642 190.028 21.0829 190.154 21.5344C189.554 21.4924 188.939 21.4977 188.318 21.5502C182.143 21.9964 175.184 26.4534 178.046 29.8028C181.186 33.4881 189.538 27.5191 189.538 27.5191C189.538 27.5191 188.755 34.9685 191.479 35.8085C193.936 36.5697 197.107 30.9052 195.787 26.4534C195.64 25.9547 195.435 25.477 195.166 25.0202C195.166 25.0202 195.903 25.3405 197.044 25.5032C198.596 25.7237 200.905 25.624 203.135 23.9808C207.006 21.1354 202.898 18.4528 197.433 18.9306V18.9358ZM197.044 25.5085C196.776 24.9887 196.355 24.4953 196.124 24.259C195.777 23.9126 195.387 23.5818 194.998 23.2878C194.435 22.8521 193.851 22.4426 193.278 22.0226C192.731 21.6237 192.153 21.2667 191.558 20.9465C191.216 20.7575 190.859 20.5842 190.501 20.4267C190.259 20.327 190.038 20.2482 189.812 20.2062C189.512 20.138 189.202 20.1222 188.855 20.1695C188.292 20.243 187.787 20.8887 188.208 21.4242C188.244 21.4714 188.276 21.5134 188.313 21.5502C188.797 22.0804 189.37 22.2116 189.896 22.4741C190.185 22.6264 190.48 22.7839 190.759 22.9519C191.348 23.2931 191.89 23.7026 192.437 24.1015C192.984 24.5005 193.552 24.8785 194.088 25.2932C194.635 25.708 195.187 26.1227 195.782 26.4587C196.113 26.6582 196.46 26.8209 196.829 26.9522C196.923 26.9837 197.044 26.9679 197.107 26.8997C197.444 26.5742 197.318 26.0282 197.039 25.5085H197.044Z" fill="#5A4E76"/>
<path d="M92.5828 271.726V225.082H5.75293V195.29L79.6173 76.1264H135.998V190.775H159.215V225.082H135.998V271.726H92.5828ZM92.5828 190.781V147.449C92.5828 135.711 93.1877 123.679 93.7874 111.037H92.8827C86.5498 123.673 81.1268 135.112 74.4889 147.449L48.5577 190.177L48.2579 190.781H92.5776H92.5828Z" fill="#000025"/>
<path d="M502.4 271.726V225.082H415.57V195.29L489.44 76.1264H545.82V190.775H569.038V225.082H545.82V271.726H502.406H502.4ZM502.4 190.781V147.449C502.4 135.711 503.005 123.679 503.605 111.037H502.7C496.367 123.673 490.939 135.112 484.306 147.449L458.375 190.177L458.075 190.781H502.395H502.4Z" fill="#000025"/>
<path d="M293.047 29.4878C232.437 29.4878 183.3 78.5256 183.3 139.024C183.3 199.522 232.432 248.559 293.047 248.559C353.662 248.559 402.794 199.522 402.794 139.024C402.794 78.5256 353.662 29.4878 293.047 29.4878ZM305.639 79.6753H348.139C350.553 79.6753 352.51 81.6282 352.51 84.0378V126.435C352.51 126.435 352.499 126.45 352.494 126.445C348.954 123.873 345.093 121.762 340.964 120.13C334.821 117.704 328.383 116.476 321.829 116.476C319.599 116.476 317.39 116.623 315.212 116.906C315.207 116.906 315.196 116.901 315.202 116.896C316.369 107.977 315.154 98.8683 311.646 90.4215C310.057 86.5892 308.038 82.9931 305.634 79.6963C305.629 79.691 305.634 79.6805 305.644 79.6805L305.639 79.6753ZM352.51 168.837C352.278 176.885 348.917 184.145 343.594 189.453C338.24 194.797 330.908 198.157 322.792 198.351C322.786 198.351 322.781 198.351 322.781 198.34V177.341C322.781 177.341 322.781 177.331 322.792 177.331C327.652 176.953 331.481 172.884 331.481 167.944C331.481 165.141 330.566 162.931 328.688 161.177C326.868 159.482 324.301 158.469 321.824 158.469C319.346 158.469 317.274 159.393 315.37 161.288L307.948 168.695L299.259 177.368L278.219 198.367C278.219 198.367 278.219 198.367 278.209 198.367H237.95C235.536 198.367 233.579 196.414 233.579 194.004V153.823C233.579 153.823 233.579 153.817 233.579 153.812L254.603 132.829L270.708 116.754C272.207 115.258 273.086 113.646 273.407 111.819C273.701 110.108 273.47 108.218 272.754 106.486C272.039 104.759 270.861 103.257 269.441 102.254C267.926 101.189 266.159 100.669 264.039 100.669C259.089 100.669 255.023 104.491 254.634 109.331C254.634 109.336 254.629 109.342 254.624 109.342H233.579V109.195C233.81 101.147 237.171 93.8863 242.494 88.5788C247.902 83.1873 255.323 79.8065 263.539 79.6753C290.88 79.229 304.608 112.628 285.273 131.926L254.629 162.511C254.629 162.511 254.629 162.511 254.629 162.521V177.357C254.629 177.357 254.629 177.368 254.639 177.368H269.504C269.504 177.368 269.509 177.368 269.514 177.368L300.495 146.447C319.473 127.506 351.773 140.551 352.51 167.031V168.847V168.837Z" fill="#866EAE"/>
<path d="M293.047 238.07C347.857 238.07 392.29 193.723 392.29 139.018C392.29 84.3134 347.857 39.9663 293.047 39.9663C238.236 39.9663 193.804 84.3134 193.804 139.018C193.804 193.723 238.236 238.07 293.047 238.07Z" stroke="#5A4E76" stroke-width="5.94" stroke-miterlimit="10"/>
<path d="M245.929 152.253C258.137 150.489 269.288 142.688 276.362 132.776C279.655 128.162 282.158 122.996 283.579 117.505C284.883 112.465 285.609 106.806 284.326 101.687C282.116 92.9099 273.969 87.7074 265.353 86.6102C261.009 86.059 256.511 86.4579 252.367 87.8859C247.948 89.4083 244.345 92.1802 241.626 95.9652C240.211 97.9286 238.733 100.375 238.665 102.869C238.607 105.042 240.164 106.596 242.252 106.948C244.771 107.378 247.433 106.302 249.589 105.089C252.251 103.598 254.534 101.645 256.438 99.2673C260.325 94.406 263.638 88.4686 265.327 82.4524C266.789 77.2551 266.474 71.5802 265.358 66.3514C264.217 61.0072 262.003 55.5475 258.084 51.6207C253.987 47.5154 248.122 45.4837 242.473 44.7435C236.74 43.9928 230.712 44.5125 225.236 46.4024C222.88 47.2161 220.444 48.3028 218.619 50.009C217.241 51.2952 215.668 53.4108 216.231 55.4845C216.857 57.7944 219.84 58.4873 221.907 58.2196C224.926 57.8311 227.803 55.957 229.944 53.8781C232.3 51.5839 234.42 48.7858 235.987 45.8985C237.145 43.7671 237.849 41.3942 237.802 38.9583C237.597 28.7948 226.357 22.2326 217.546 20.3795C215.153 19.8755 212.744 19.718 210.309 19.9018C209.493 19.9648 209.988 21.2457 210.651 21.1932C215.279 20.8467 220.045 22.2326 224.147 24.28C228.129 26.2644 231.921 29.199 234.11 33.1363C236.313 37.0999 236.061 41.6619 233.736 45.5205C232.148 48.1611 230.217 50.8437 227.924 52.9226C226.015 54.655 223.143 56.6499 220.423 56.4557C219.624 56.3979 218.614 56.02 218.309 55.1327C217.951 54.0828 218.751 52.8649 219.266 52.2244C220.565 50.6127 222.554 49.6415 224.442 48.8068C229.139 46.7227 234.562 46.0455 239.659 46.3132C244.908 46.5862 250.373 47.9354 254.644 51.1272C258.657 54.1248 261.014 58.7708 262.439 63.4693C263.912 68.3253 264.533 73.6381 263.844 78.6831C263.144 83.8226 260.693 88.7416 258.026 93.1251C255.06 98.0126 251.33 102.674 245.75 104.654C244.372 105.142 241.484 105.866 240.932 103.861C240.39 101.882 241.957 99.4038 242.978 97.8499C245.292 94.322 248.39 91.5922 252.309 89.9858C255.98 88.4843 260.057 87.9226 264.007 88.2219C271.56 88.7888 279.229 92.7314 281.864 100.223C283.405 104.612 283.089 109.489 282.269 113.993C281.359 118.975 279.502 123.768 276.962 128.146C271.507 137.522 262.992 144.567 253.082 148.867C250.704 149.896 248.243 150.751 245.781 151.565C245.523 151.649 245.634 152.295 245.923 152.253H245.929Z" fill="#DBD7E8"/>
<path d="M194.939 13.2661C188.438 12.8094 179.686 17.8439 182.826 21.5292C185.971 25.2145 194.319 19.2508 194.319 19.2508C194.319 19.2508 193.53 26.6949 196.265 27.5401C198.995 28.3801 202.608 21.2877 199.947 16.7467C199.947 16.7467 204.05 18.5631 207.921 15.7125C211.792 12.8619 207.684 10.1792 202.219 10.657C202.219 10.657 206.132 -2.11039 198.227 0.304485C194.319 1.49618 192.914 6.13169 194.939 13.2661Z" fill="#B69AE7"/>
<path opacity="0.65" d="M194.939 13.2661C188.438 12.8094 179.686 17.8439 182.826 21.5292C185.971 25.2145 194.319 19.2508 194.319 19.2508C194.319 19.2508 193.53 26.6949 196.265 27.5401C198.995 28.3801 202.608 21.2877 199.947 16.7467C199.947 16.7467 204.05 18.5631 207.921 15.7125C211.792 12.8619 207.684 10.1792 202.219 10.657C202.219 10.657 206.132 -2.11039 198.227 0.304485C194.319 1.49618 192.914 6.13169 194.939 13.2661Z" fill="white"/>
<path d="M200.909 15.9855C200.562 15.6337 200.178 15.3135 199.789 15.0143C199.226 14.5838 198.642 14.1743 198.069 13.7543C197.522 13.3553 196.943 13.0036 196.349 12.6781C196.002 12.4891 195.649 12.3159 195.291 12.1584C194.734 11.9169 194.255 11.8277 193.65 11.9064C193.088 11.9799 192.583 12.6204 193.003 13.1558C193.508 13.7963 194.129 13.9171 194.687 14.2058C194.981 14.358 195.27 14.5155 195.554 14.6835C196.144 15.03 196.68 15.429 197.232 15.8332C197.779 16.2322 198.347 16.6102 198.884 17.0196C199.736 17.6706 200.604 18.3163 201.624 18.6786C201.714 18.7101 201.835 18.6943 201.903 18.6261C202.582 17.9751 201.382 16.4579 200.914 15.9855H200.909Z" fill="#292C8B"/>
</g>
<defs>
<clipPath id="clip0_2146_2929">
<rect width="568.066" height="280" fill="white" transform="translate(0.966797)"/>
</clipPath>
</defs>
</svg>
